# xmcd
#
# Track frame offsets:
# 150
# 23691
# 46459
# 69547
# 79978
# 102335
# 122616
# 140912
#
# Disc length: 2120 seconds
#
#
# Revision: 0
# Processed by: cddbd v1.5.2PL0 Copyright (c) Steve Scherf et al.
# Submitted via: FreeRIP 2.945 
#
DISCID=6e084608
DTITLE=Skyy - Skyy Port
DYEAR=1900
DGENRE=R&B
TTITLE0=Here's To You
TTITLE1=I Can't Get Enough
TTITLE2=Superlove
TTITLE3=No Music
TTITLE4=Easy
TTITLE5=Sun Won't Shine
TTITLE6=For The First Time
TTITLE7=Arrival
EXTD=
EXTT0=
EXTT1=
EXTT2=
EXTT3=
EXTT4=
EXTT5=
EXTT6=
EXTT7=
PLAYORDER=
